# xmcd
#
# Track frame offsets: 
#        180
#        12687
#        25484
#        37601
#        48663
#        60699
#        72747
#        91560
#        105334
#        118009
#        132420
#        143636
#        157185
#        168551
#        180828
#        190557
#        203808
#        215656
#        228502
#        239334
#
# Disc length: 3375 seconds
#
# Revision: 2
# Processed by: cddbd v1.5.2PL0 Copyright (c) Steve Scherf et al.
# Submitted via: ExactAudioCopyFreeDBPlugin 1.0
#
DISCID=180d2d14
DTITLE=Various Artist - Golden Greats Of Blues [CD3)
DYEAR=2006
DGENRE=Blues
TTITLE0=Big Joe Turner - The Cill Is On
TTITLE1=John Brim - Ice Cream Man
TTITLE2=Willie Mabon - I'm Mad
TTITLE3=Hadda Brooks - Jump Back, Honey
TTITLE4=Ray Charles - Mess Around
TTITLE5=Muddy Waters - Long Distance Call
TTITLE6=John Lee Hooker - I Feel Good
TTITLE7=Bessie Smith - The Yellow Dog Blues
TTITLE8=Big Joe Turner - Still In The Dark
TTITLE9=Howlin' Wolf - Smokestack Lightnin'
TTITLE10=John Lee Hooker - Boom Boom
TTITLE11=Moddy Waters - Rollin' And Tumblin'
TTITLE12=B. B. King - She's Dynamite
TTITLE13=Joe Williams And Count Basie - They Didn't Believe Me
TTITLE14=John Lee Hooker - Onions
TTITLE15=Alberta Adams - Remember
TTITLE16=Joe Williams And Count Basie - Every Day
TTITLE17=Ray Charles - Heartbreaker
TTITLE18=Sonny Terry And Brownie McGhee - Baby Let's Have Some Fun
TTITLE19=Bessie Smith - Woman's Trouble Blues
EXTD=
EXTT0=
EXTT1=
EXTT2=
EXTT3=
EXTT4=
EXTT5=
EXTT6=
EXTT7=
EXTT8=
EXTT9=
EXTT10=
EXTT11=
EXTT12=
EXTT13=
EXTT14=
EXTT15=
EXTT16=
EXTT17=
EXTT18=
EXTT19=
PLAYORDER=
